<?xml version="1.0" encoding="utf-8"?>
<!-- Generator: Adobe Illustrator 18.1.0, SVG Export Plug-In . SVG Version: 6.00 Build 0)  -->
<!DOCTYPE svg PUBLIC "-//W3C//DTD SVG 1.1//EN" "http://www.w3.org/Graphics/SVG/1.1/DTD/svg11.dtd">
<svg version="1.1" id="Layer_1" xmlns="http://www.w3.org/2000/svg" xmlns:xlink="http://www.w3.org/1999/xlink" x="0px" y="0px"
	 viewBox="0 0 32 32" enable-background="new 0 0 32 32" xml:space="preserve">
<rect fill="#A8AFB6" width="32" height="32"/>
<g>
	<g>
		<path fill="#F3F5F7" d="M16,17.6c2.1,0,3.8-1.7,3.8-3.8V9.7C19.8,7.7,18.1,6,16,6s-3.7,1.7-3.7,3.8v4.1
			C12.3,15.9,13.9,17.6,16,17.6z M13.6,9.8c0-1.4,1.1-2.5,2.4-2.5c1.4,0,2.6,1.1,2.6,2.5v4.1c0,1.4-1.2,2.5-2.6,2.5
			c-1.4,0-2.4-1.1-2.4-2.5V9.8z M24.7,24.2l-1-4.3c-0.2-0.8-0.6-1.4-1.3-1.7L20,17c-0.3-0.2-0.7,0-0.8,0.3c-0.2,0.3,0,0.7,0.3,0.8
			l2.3,1.2c0.3,0.2,0.6,0.5,0.7,0.9l1,4.3c0,0.1,0,0.2,0,0.2s-0.1,0.1-0.2,0.1H8.8c-0.1,0-0.1-0.1-0.2-0.1c0,0-0.1-0.1-0.1-0.2
			l1.1-4.4c0.1-0.4,0.3-0.7,0.7-0.9l2.3-1.2c0.3-0.2,0.4-0.5,0.3-0.8C12.7,17,12.3,16.8,12,17l-2.3,1.2c-0.7,0.3-1.2,1-1.3,1.7
			l-1.1,4.4c-0.1,0.4,0,0.9,0.3,1.2C7.9,25.8,8.3,26,8.7,26h14.5c0.4,0,0.9-0.2,1.1-0.5C24.6,25.1,24.8,24.7,24.7,24.2z"/>
	</g>
</g>
</svg>
